<svg id="Camada_1" data-name="Camada 1" xmlns="http://www.w3.org/2000/svg" viewBox="0 0 20 20"><defs><style>.cls-1{fill:#57d031;}.cls-2{fill:#fcfcfc;}</style></defs><rect class="cls-1" width="20" height="20" rx="0.58"/><path class="cls-2" d="M16.6,10a1.86,1.86,0,0,0-1.41-1.79L17,3H8L9.84,8.27a1.84,1.84,0,0,0-.56,3.29,5.2,5.2,0,0,1-.66.74,5,5,0,0,1-1.54,1,1.23,1.23,0,0,1-.53-1.46A1.85,1.85,0,0,0,7.79,9.5a1.89,1.89,0,0,0-3.68.56,1.82,1.82,0,0,0,.55,1.3l-.09.17a7.16,7.16,0,0,0-.72,2A3.07,3.07,0,0,0,5,16.75a3.12,3.12,0,0,0,1.78.55,8,8,0,0,0,3.32-1.07,11.82,11.82,0,0,1,2.36-1,8.19,8.19,0,0,1,.91-.16,5.25,5.25,0,0,0,1.92-.53A2.63,2.63,0,0,0,16.32,11a1.87,1.87,0,0,0,.28-1Zm-.82,0a1.06,1.06,0,1,1-1.72-.82h0l.11-.07h0l.05,0h0l.06,0,.06,0h.47l.1,0a1,1,0,0,1,.85,1ZM9.2,3.83h6.63L14.3,8.24l-.18,0-1.6-3.21L10.91,8.27l-.2,0L9.2,3.83Zm3,5.85a1.78,1.78,0,0,0-.57-1L12.52,7l.88,1.77a1.74,1.74,0,0,0-.53.95ZM10.1,9h.66l.05,0h0l0,0h0l0,0h0l0,0h0l.14.11h0a1,1,0,0,1,.29.72,1,1,0,0,1-1.09,1,1.06,1.06,0,0,1-1-1A1,1,0,0,1,10.1,9ZM6,9A1,1,0,1,1,4.9,10,1.06,1.06,0,0,1,6,9Zm9.79,3.59a1.8,1.8,0,0,1-.91,1.27,4.49,4.49,0,0,1-1.62.43c-.33,0-.66.1-1,.17a12.64,12.64,0,0,0-2.54,1,7.44,7.44,0,0,1-2.94,1,2.16,2.16,0,0,1-1.3-.41,2.38,2.38,0,0,1-.78-2.45,6.65,6.65,0,0,1,.66-1.72l0-.09a1.53,1.53,0,0,0,.29.07,2.12,2.12,0,0,0,1.18,2.24l.16.08.18-.06a5.94,5.94,0,0,0,2-1.24,5.66,5.66,0,0,0,.87-1,1.46,1.46,0,0,0,.29,0,1.89,1.89,0,0,0,1.83-1.39h.7a1.89,1.89,0,0,0,1.83,1.39,1.81,1.81,0,0,0,.95-.26A1.85,1.85,0,0,1,15.75,12.59Z"/></svg>