<svg id="Camada_1" data-name="Camada 1" xmlns="http://www.w3.org/2000/svg" viewBox="0 0 20 20"><defs><style>.cls-1{fill:#57d031;}.cls-2{fill:#fff;}</style></defs><title>icon-gatsby</title><rect class="cls-1" width="20" height="20" rx="0.58"/><path class="cls-2" d="M10,3a7,7,0,1,0,7,7A7,7,0,0,0,10,3ZM4.5,10.07,9.93,15.5A5.51,5.51,0,0,1,4.5,10.07Zm6.73,5.29L4.64,8.77a5.49,5.49,0,0,1,9.8-2l-.76.67a4.48,4.48,0,0,0-7.9,1l5.75,5.75a4.51,4.51,0,0,0,2.83-3.14H12V10H15.5A5.51,5.51,0,0,1,11.23,15.36Z"/></svg>