<svg id="Camada_1" data-name="Camada 1" xmlns="http://www.w3.org/2000/svg" viewBox="0 0 20 20"><defs><style>.cls-1{fill:#57d031;}.cls-2{fill:#fff;}</style></defs><title>icon-git</title><rect class="cls-1" width="20" height="20" rx="0.58"/><path class="cls-2" d="M16.63,9.11,10.89,3.37a1.26,1.26,0,0,0-1.78,0L8,4.5l1.4,1.41a1.23,1.23,0,0,1,1.48.19,1.22,1.22,0,0,1,.19,1.47L12.43,9a1.22,1.22,0,1,1-.43.43L10.61,8a1.07,1.07,0,0,1-.31.13v3.74a1.22,1.22,0,1,1-.6,0V8.13a1.16,1.16,0,0,1-.56-.31A1.23,1.23,0,0,1,9,6.34L7.55,4.93,3.37,9.11a1.26,1.26,0,0,0,0,1.78l5.74,5.74a1.26,1.26,0,0,0,1.78,0l5.74-5.74A1.26,1.26,0,0,0,16.63,9.11Z"/></svg>