<svg id="Camada_1" data-name="Camada 1" xmlns="http://www.w3.org/2000/svg" xmlns:xlink="http://www.w3.org/1999/xlink" viewBox="0 0 45.27 25.04"><defs><style>.cls-1{fill:none;}.cls-2{fill:#57d031;}.cls-3{clip-path:url(#clip-path);}.cls-4,.cls-5{fill:#fff;}.cls-5{fill-rule:evenodd;}.cls-6{clip-path:url(#clip-path-4);}.cls-7{fill:url(#Gradiente_sem_nome_4);}.cls-8{opacity:0.66;}.cls-9{clip-path:url(#clip-path-6);}.cls-10{fill:#4b4b4b;}.cls-11{clip-path:url(#clip-path-7);}.cls-12{fill:url(#Gradiente_sem_nome_2);}.cls-13{fill:#57d131;}</style><clipPath id="clip-path" transform="translate(9.24 5.04)"><rect class="cls-1" x="-10" y="-13" width="42" height="42"/></clipPath><clipPath id="clip-path-4" transform="translate(9.24 5.04)"><path class="cls-1" d="M6.71,2.88,3.77,4.58a.35.35,0,0,0-.18.31V8.28a.35.35,0,0,0,.18.31l2.94,1.7a.33.33,0,0,0,.36,0L10,8.59a.35.35,0,0,0,.18-.31V4.89A.35.35,0,0,0,10,4.58L7.07,2.88a.35.35,0,0,0-.36,0"/></clipPath><linearGradient id="Gradiente_sem_nome_4" x1="-2.02" y1="-3.47" x2="-1.95" y2="-3.47" gradientTransform="matrix(94.2, 0, 0, -94.2, 203.44, -315.16)" gradientUnits="userSpaceOnUse"><stop offset="0" stop-color="#fff"/><stop offset="0.01" stop-color="#fff"/><stop offset="0.12" stop-color="#f2f2f3"/><stop offset="0.5" stop-color="#cdcdce"/><stop offset="0.81" stop-color="#b5b6b8"/><stop offset="1" stop-color="#adaeb0"/></linearGradient><clipPath id="clip-path-6" transform="translate(9.24 5.04)"><rect class="cls-1" x="3.66" y="2.84" width="6.42" height="7.49"/></clipPath><clipPath id="clip-path-7" transform="translate(9.24 5.04)"><path class="cls-1" d="M6.87,2.83a.49.49,0,0,0-.16,0L3.8,4.56,7,10.33l.09,0L10,8.59a.34.34,0,0,0,.16-.31h0L7,2.85l-.09,0h0"/></clipPath><linearGradient id="Gradiente_sem_nome_2" x1="-1.96" y1="-3.36" x2="-1.89" y2="-3.36" gradientTransform="matrix(97.18, 0, 0, -97.18, 202.79, -315.23)" gradientUnits="userSpaceOnUse"><stop offset="0" stop-color="#adaeb0"/><stop offset="0.19" stop-color="#b5b6b8"/><stop offset="0.5" stop-color="#cdcdce"/><stop offset="0.88" stop-color="#f2f2f3"/><stop offset="0.99" stop-color="#fff"/><stop offset="1" stop-color="#fff"/></linearGradient></defs><title>icon-node</title><rect class="cls-2" x="9.24" y="5.04" width="20" height="20" rx="0.58"/><g class="cls-3"><g class="cls-3"><g class="cls-3"><path class="cls-4" d="M10.79,17.45a.61.61,0,0,1-.3-.08l-.93-.55c-.14-.08-.07-.11,0-.13A1.77,1.77,0,0,0,10,16.5a.06.06,0,0,1,.07,0l.71.42a.07.07,0,0,0,.09,0l2.8-1.61a.12.12,0,0,0,0-.08V12a.09.09,0,0,0,0-.08l-2.8-1.61a.08.08,0,0,0-.09,0L8,11.94s0,.05,0,.08v3.22a.09.09,0,0,0,0,.08l.77.44c.41.21.67,0,.67-.28V12.29a.08.08,0,0,1,.08-.08h.35a.08.08,0,0,1,.08.08v3.19a.77.77,0,0,1-.83.87,1.23,1.23,0,0,1-.64-.17l-.73-.43a.59.59,0,0,1-.3-.51V12a.59.59,0,0,1,.3-.51l2.79-1.62a.62.62,0,0,1,.59,0l2.8,1.62a.58.58,0,0,1,.29.51v3.22a.58.58,0,0,1-.29.51l-2.8,1.62a.6.6,0,0,1-.29.08" transform="translate(9.24 5.04)"/><path class="cls-4" d="M11.65,15.22c-1.22,0-1.48-.56-1.48-1a.09.09,0,0,1,.08-.08h.36a.08.08,0,0,1,.08.07c.06.37.22.55,1,.55.59,0,.84-.13.84-.44s-.07-.32-1-.41c-.76-.07-1.23-.24-1.23-.85s.47-.91,1.27-.91,1.34.32,1.39,1a0,0,0,0,1,0,.06.06.06,0,0,1-.06,0h-.36a.09.09,0,0,1-.08-.06c-.09-.39-.3-.51-.87-.51s-.72.22-.72.39.09.26,1,.38,1.26.27,1.26.87-.5,1-1.39,1" transform="translate(9.24 5.04)"/><path class="cls-4" d="M15.68,11.84a.54.54,0,1,1-.54-.54.54.54,0,0,1,.54.54m-1,0a.45.45,0,0,0,.45.45.46.46,0,0,0,.46-.45.46.46,0,0,0-.46-.45.45.45,0,0,0-.45.45m.25-.3h.21c.07,0,.21,0,.21.16a.13.13,0,0,1-.11.14c.08,0,.09.06.1.14a.38.38,0,0,0,0,.16h-.13s0-.18,0-.19,0,0-.07,0h-.1v.24h-.12Zm.12.26h.09c.08,0,.09-.05.09-.08s-.06-.09-.09-.09h-.09Z" transform="translate(9.24 5.04)"/><path class="cls-5" d="M2.13,4.82A.35.35,0,0,0,2,4.51L-1,2.8a.29.29,0,0,0-.16,0h0a.29.29,0,0,0-.16,0l-3,1.71a.35.35,0,0,0-.18.31V9.41a.17.17,0,0,0,.09.16.19.19,0,0,0,.18,0l1.76-1a.37.37,0,0,0,.18-.31V6.1a.34.34,0,0,1,.18-.31l.75-.43a.35.35,0,0,1,.18-.05A.34.34,0,0,1-1,5.36l.75.43a.37.37,0,0,1,.18.31V8.25a.37.37,0,0,0,.18.31l1.76,1a.19.19,0,0,0,.18,0,.17.17,0,0,0,.09-.16Z" transform="translate(9.24 5.04)"/><path class="cls-5" d="M16.39-1.5a.17.17,0,0,0-.18,0,.18.18,0,0,0-.08.15V3.21a.14.14,0,0,1-.07.11.13.13,0,0,1-.12,0l-.74-.43a.38.38,0,0,0-.36,0l-3,1.71a.37.37,0,0,0-.18.31V8.34a.37.37,0,0,0,.18.31l3,1.71a.38.38,0,0,0,.36,0l3-1.71a.37.37,0,0,0,.18-.31V-.2a.35.35,0,0,0-.18-.31Zm-.27,8.71a.1.1,0,0,1-.05.08l-1,.59H15l-1-.59a.1.1,0,0,1,0-.08V6A.08.08,0,0,1,14,6l1-.59a.07.07,0,0,1,.09,0l1,.59a.08.08,0,0,1,.05.08Z" transform="translate(9.24 5.04)"/><path class="cls-5" d="M26.27,6a.38.38,0,0,0,.18-.31V4.87a.35.35,0,0,0-.18-.31L23.32,2.85a.36.36,0,0,0-.36,0L20,4.56a.35.35,0,0,0-.18.31V8.29A.35.35,0,0,0,20,8.6L23,10.28a.36.36,0,0,0,.35,0l1.78-1a.16.16,0,0,0,.09-.15A.17.17,0,0,0,25.08,9l-3-1.71A.18.18,0,0,1,22,7.11V6a.18.18,0,0,1,.09-.16L23,5.35a.19.19,0,0,1,.18,0l.92.53a.18.18,0,0,1,.09.16v.84a.18.18,0,0,0,.27.16Z" transform="translate(9.24 5.04)"/><path class="cls-5" d="M23.1,5.85a0,0,0,0,1,.07,0l.57.32a.09.09,0,0,1,0,.06v.66a.07.07,0,0,1,0,.06l-.57.33H23.1L22.53,7a.07.07,0,0,1,0-.06V6.23a.09.09,0,0,1,0-.06Z" transform="translate(9.24 5.04)"/></g><g class="cls-6"><rect class="cls-7" x="12.84" y="7.87" width="6.59" height="7.52"/></g><g class="cls-6"><g class="cls-8"><g class="cls-9"><path class="cls-10" d="M10,4.58,7.07,2.88l-.1,0L3.66,8.51a.39.39,0,0,0,.1.08l3,1.7a.35.35,0,0,0,.28,0l3.1-5.66L10,4.58" transform="translate(9.24 5.04)"/></g></g></g><g class="cls-11"><rect class="cls-12" x="13.04" y="7.87" width="6.36" height="7.5"/></g></g></g><path class="cls-13" d="M11,3a9.64,9.64,0,0,1,3-4c1.06-.93,4.19-3.67,8-4C28.51-5.57,36.5.89,36,8c-.31,4.45-4.46,9.14-8,9-4.06-.16-6.52-6.63-11-6a5.67,5.67,0,0,1-3,0,5.55,5.55,0,0,1-3-3A7,7,0,0,1,11,3Z" transform="translate(9.24 5.04)"/><path class="cls-13" d="M-7,3c-3.47,3-2.75,10,1,12,3.13,1.66,8-.31,9-3A9.21,9.21,0,0,0,3,9c-.26-3.48-.39-5.22-1-6C.36.93-4.37.7-7,3Z" transform="translate(9.24 5.04)"/></svg>