<svg xmlns="http://www.w3.org/2000/svg" width="150" height="150" viewBox="0 0 150 150">
  <g id="icon-tem-player" transform="translate(-221 -812)">
    <path id="Caminho_1" data-name="Caminho 1" d="M71.395,4.165a8.824,8.824,0,0,1,10.751,0l65.823,49.957a9.91,9.91,0,0,1,3.348,10.8l-25.123,80.77a9.231,9.231,0,0,1-8.723,6.644H36.07a9.231,9.231,0,0,1-8.723-6.644L2.225,64.924a9.91,9.91,0,0,1,3.348-10.8Z" transform="translate(219.23 809.661)" fill="#57d131"/>
    <g id="team" transform="translate(264 857)">
      <path id="Caminho_7" data-name="Caminho 7" d="M1.078,55.423H20.484a1.077,1.077,0,0,0,1.078-1.078V50.028a4.317,4.317,0,0,0-4.313-4.313c-.012,0-.02.006-.031.006H15.094V43.466a8.622,8.622,0,0,0,4.312-7.452h0V31.16a9.115,9.115,0,0,0-2.393-6.153,1.018,1.018,0,0,0-.08-.088A9.151,9.151,0,0,0,1.078,31.16v.535a1.308,1.308,0,0,0,.026.129,1.043,1.043,0,0,0,.042.209,1.342,1.342,0,0,0,.2.354,1.019,1.019,0,0,0,.15.139,1.043,1.043,0,0,0,.168.113.97.97,0,0,0,.2.074.84.84,0,0,0,.123.045c.059.011.11.012.169.022v3.232h0a8.622,8.622,0,0,0,4.313,7.452v2.257H4.344c-.012,0-.02-.006-.031-.006A4.317,4.317,0,0,0,0,50.028v4.317a1.077,1.077,0,0,0,1.078,1.078ZM16.354,27.741a6.976,6.976,0,0,1,.763,2.073,4.455,4.455,0,0,0-1.415-.749Zm-6.113-3.589A6.966,6.966,0,0,1,14.855,25.9l-1.6,3.254c-.427.126-.869.292-1.339.478a15.81,15.81,0,0,1-8.664,1.112A7.01,7.01,0,0,1,10.241,24.152ZM4.313,36.008v-3a17.529,17.529,0,0,0,8.4-1.378c2.032-.805,2.637-1.036,4.537,1.375v3a6.469,6.469,0,0,1-12.937,0Zm6.469,8.624a8.581,8.581,0,0,0,2.156-.285v2l-.212.212-1.461-.731c-.024-.012-.05-.01-.073-.02a1.165,1.165,0,0,0-.21-.057,1.04,1.04,0,0,0-.2-.025,1.147,1.147,0,0,0-.2.025,1.082,1.082,0,0,0-.21.057c-.024.011-.05.009-.073.02l-1.463.732-.212-.212v-2A8.58,8.58,0,0,0,10.781,44.632Zm-6.49,3.242c.008,0,.014,0,.022,0H7.107l.756.756c.011.012.026.015.038.025a1.064,1.064,0,0,0,.272.18.858.858,0,0,0,.093.04,1.089,1.089,0,0,0,.358.07h.009a1.061,1.061,0,0,0,.438-.1c.013-.005.025,0,.038-.009L10.781,48l1.674.837c.013.006.025,0,.038.009a1.065,1.065,0,0,0,.438.1h.009a1.089,1.089,0,0,0,.358-.07.857.857,0,0,0,.093-.04,1.064,1.064,0,0,0,.273-.181c.011-.01.026-.014.037-.024l.756-.756H17.25c.008,0,.014,0,.022,0a2.156,2.156,0,0,1,2.135,2.153v3.239H2.156V50.028A2.158,2.158,0,0,1,4.291,47.874Z" transform="translate(0 1.718)" fill="#fff"/>
      <path id="Caminho_8" data-name="Caminho 8" d="M40.563,54.032H38.406V51.494A10.775,10.775,0,0,0,43.8,42.172V35.7a5.4,5.4,0,0,0-4.312-5.283V27.072a1.078,1.078,0,0,0-1.078-1.078H31.938a9.715,9.715,0,0,0-9.7,9.7v6.527c0,.006,0,.012,0,.018a10.778,10.778,0,0,0,5.387,9.251v2.537H25.469A6.475,6.475,0,0,0,19,60.5v4.313a2.158,2.158,0,0,0,2.156,2.156H44.875a2.158,2.158,0,0,0,2.156-2.156V60.5A6.475,6.475,0,0,0,40.563,54.032ZM44.875,60.5v4.313H34.609l3.449-8.625h2.5A4.317,4.317,0,0,1,44.875,60.5ZM31.3,58.239c.013-.005.025,0,.038-.009l1.674-.837,1.674.837c.013.006.025,0,.038.009a1.151,1.151,0,0,0,.167.052l-1.879,4.7-1.879-4.7a1,1,0,0,0,.167-.053Zm.634-30.087h5.391v3.234a1.078,1.078,0,0,0,1.078,1.078A3.239,3.239,0,0,1,41.641,35.7v1.234l-1.553-1.049a1.022,1.022,0,0,0-.147-.06.947.947,0,0,0-.175-.072.986.986,0,0,0-.224-.031,1.065,1.065,0,0,0-.185,0,1.032,1.032,0,0,0-.22.057,1.319,1.319,0,0,0-.128.033,13.591,13.591,0,0,1-5.454.967,24.02,24.02,0,0,1-6.669-1.023c-.023-.008-.044,0-.067-.009a.976.976,0,0,0-.217-.026,1.061,1.061,0,0,0-.2,0,.975.975,0,0,0-.185.053.954.954,0,0,0-.206.085c-.022.012-.044.013-.065.026l-1.553,1.049V35.7A7.557,7.557,0,0,1,31.937,28.151ZM24.391,42.173V39.536l2.335-1.577a26.067,26.067,0,0,0,6.829.976,16.8,16.8,0,0,0,5.8-.94l2.282,1.542v2.637a8.625,8.625,0,0,1-17.25,0Zm8.624,10.78a10.739,10.739,0,0,0,3.235-.5v2.207l-1.291,1.291L33.5,55.223c-.024-.012-.051-.011-.074-.02a1.083,1.083,0,0,0-.208-.057.97.97,0,0,0-.2-.025,1.051,1.051,0,0,0-.2.025.992.992,0,0,0-.208.057c-.024.01-.051.009-.074.02l-1.461.731-1.293-1.291V52.457A10.72,10.72,0,0,0,33.015,52.954Zm-7.546,3.234h2.5l3.449,8.625H21.155V60.5A4.318,4.318,0,0,1,25.469,56.188Z" transform="translate(1.484 2.031)" fill="#fff"/>
      <path id="Caminho_9" data-name="Caminho 9" d="M55.859,20.992a9.671,9.671,0,0,0-5.8,2.2,4.3,4.3,0,0,0-3.9,4.27v8.63h0a8.622,8.622,0,0,0,4.312,7.452V45.8H48.344c-.012,0-.02-.006-.031-.006A4.317,4.317,0,0,0,44,50.107v4.317A1.077,1.077,0,0,0,45.078,55.5H64.484a1.077,1.077,0,0,0,1.078-1.078V50.107a4.317,4.317,0,0,0-4.312-4.312c-.012,0-.02.006-.031.006H59.094V43.544a8.669,8.669,0,0,0,3.841-4.667,7.5,7.5,0,0,1,.471,2.6,1.078,1.078,0,0,0,2.156,0V30.7a9.714,9.714,0,0,0-9.7-9.7Zm-6.469,4.613v4.013a2.149,2.149,0,0,1-1.078,1.857V27.462A2.147,2.147,0,0,1,49.391,25.605Zm14.016,24.5v3.239H46.156V50.107a2.158,2.158,0,0,1,2.135-2.154c.008,0,.014,0,.022,0H51.23l2.955,1.97c.01.006.02.008.028.014a1.136,1.136,0,0,0,.22.1c.02.006.039.016.059.023a1.126,1.126,0,0,0,.288.042h0a1.126,1.126,0,0,0,.288-.042c.02-.006.039-.016.059-.023a1.076,1.076,0,0,0,.22-.1c.01-.006.019-.008.028-.014l2.955-1.97H61.25c.008,0,.014,0,.022,0A2.158,2.158,0,0,1,63.406,50.107ZM56.938,46.3l-2.156,1.437L52.625,46.3V44.427a8.31,8.31,0,0,0,4.313,0Zm-2.156-3.741a6.475,6.475,0,0,1-6.469-6.468v-2.31a4.286,4.286,0,0,0,2.156-1.337,4.284,4.284,0,0,0,3.234,1.49h2.156A7.526,7.526,0,0,1,61.245,36.2a6.474,6.474,0,0,1-6.463,6.356Zm8.625-7.162c-.085-.106-.177-.206-.267-.308a1.011,1.011,0,0,0-.092-.1,9.667,9.667,0,0,0-7.188-3.21H53.7a2.158,2.158,0,0,1-2.156-2.156V24.759A7.288,7.288,0,0,1,63.406,30.7Z" transform="translate(3.438 1.64)" fill="#fff"/>
      <path id="Caminho_10" data-name="Caminho 10" d="M25.077,22.638v1.078a1.078,1.078,0,0,0,0,2.156H40.172a1.078,1.078,0,0,0,0-2.156h0V22.638a7.552,7.552,0,0,0-4.312-6.808V8.443a4.852,4.852,0,1,0-6.467,0V15.83A7.548,7.548,0,0,0,25.077,22.638Zm12.937,0v1.078H27.233V22.638a5.391,5.391,0,1,1,10.781,0ZM32.625,2.156a2.7,2.7,0,1,1-2.7,2.7A2.7,2.7,0,0,1,32.625,2.156ZM31.548,9.573a4.511,4.511,0,0,0,2.154,0v5.605a6.768,6.768,0,0,0-2.154,0Z" transform="translate(1.875)" fill="#fff"/>
      <path id="Caminho_11" data-name="Caminho 11" d="M10.078,19.7a1.078,1.078,0,0,0,1.078-1.078V12.156h15.1a1.078,1.078,0,0,0,0-2.156H10.078A1.078,1.078,0,0,0,9,11.078v7.547A1.078,1.078,0,0,0,10.078,19.7Z" transform="translate(0.703 0.781)" fill="#fff"/>
      <path id="Caminho_12" data-name="Caminho 12" d="M39.077,12.156h15.1v6.469a1.078,1.078,0,0,0,2.156,0V11.078A1.078,1.078,0,0,0,55.251,10H39.077a1.078,1.078,0,0,0,0,2.156Z" transform="translate(2.969 0.781)" fill="#fff"/>
    </g>
  </g>
</svg>
