<svg xmlns="http://www.w3.org/2000/svg" width="35.5" height="35.5" viewBox="0 0 35.5 35.5">
  <path id="icon-skill" d="M31.7,67.5H3.8A3.8,3.8,0,0,1,0,63.7V35.8A3.8,3.8,0,0,1,3.8,32H31.7a3.8,3.8,0,0,1,3.8,3.8V63.7A3.8,3.8,0,0,1,31.7,67.5Zm-16.22-7.77,14.58-14.58a1.268,1.268,0,0,0,0-1.793l-1.793-1.793a1.268,1.268,0,0,0-1.793,0L14.58,53.454,9.029,47.9a1.268,1.268,0,0,0-1.793,0L5.443,49.7a1.268,1.268,0,0,0,0,1.793l8.241,8.241A1.268,1.268,0,0,0,15.477,59.73Z" transform="translate(0 -32)" fill="#57d131"/>
</svg>
