<svg id="Camada_1" data-name="Camada 1" xmlns="http://www.w3.org/2000/svg" viewBox="0 0 20 20"><defs><style>.cls-1{fill:#57d131;}.cls-2{fill:#fff;}</style></defs><title>icon-reactjs</title><rect class="cls-1" width="20" height="20" rx="0.58"/><path class="cls-2" d="M14.51,7.81l-.45-.14c0-.11,0-.21.07-.31.34-1.66.12-3-.64-3.43S11.56,4,10.36,5L10,5.32,9.77,5.1C8.51,4,7.24,3.51,6.48,4s-.94,1.68-.64,3.24c0,.16.07.31.11.47-.18,0-.36.1-.52.16C4,8.34,3,9.15,3,10s1,1.74,2.56,2.26c.12.05.25.08.38.12,0,.17-.08.34-.11.5-.29,1.54-.07,2.77.66,3.19s2,0,3.24-1.09a3.65,3.65,0,0,0,.3-.27c.12.13.25.24.37.35,1.19,1,2.37,1.44,3.1,1s1-1.75.67-3.35c0-.12-.05-.24-.08-.37l.26-.08C16,11.73,17,10.87,17,10S16,8.33,14.51,7.81ZM10.75,5.45c1-.9,2-1.26,2.44-1s.65,1.36.35,2.79c0,.09,0,.18-.06.28a13.05,13.05,0,0,0-1.87-.3,15.63,15.63,0,0,0-1.18-1.48ZM7.45,10c.18-.37.38-.75.6-1.13h0c.21-.37.44-.73.68-1.08.41,0,.84,0,1.27,0h0c.43,0,.86,0,1.28,0,.23.35.45.71.67,1.08s.42.76.61,1.12c-.19.38-.39.76-.61,1.14s-.44.74-.67,1.08c-.41,0-.84,0-1.28,0s-.86,0-1.27,0c-.23-.35-.46-.71-.68-1.09h0C7.83,10.76,7.63,10.38,7.45,10Zm-.32.71c.13.24.26.48.4.72h0c.14.25.29.49.44.72a11.59,11.59,0,0,1-1.29-.21C6.8,11.54,7,11.13,7.13,10.71Zm0-1.41c-.17-.41-.32-.82-.44-1.21.4-.09.82-.16,1.27-.22-.15.23-.29.46-.43.71h0C7.39,8.82,7.26,9.06,7.13,9.3Zm5.34,2.13c.14-.25.28-.5.41-.75.18.43.34.84.47,1.24-.41.09-.85.16-1.31.22C12.19,11.91,12.33,11.67,12.47,11.43Zm.4-2.13c-.12-.24-.26-.48-.4-.73s-.28-.47-.43-.7c.45.06.88.13,1.28.22A11.28,11.28,0,0,1,12.87,9.3ZM10,6.17a12.56,12.56,0,0,1,.82,1c-.27,0-.55,0-.83,0s-.55,0-.82,0A12.24,12.24,0,0,1,10,6.17ZM6.78,4.47c.47-.27,1.51.11,2.6,1.08l.21.2a14.12,14.12,0,0,0-1.2,1.47,14.78,14.78,0,0,0-1.86.29c0-.15-.07-.29-.1-.43C6.17,5.74,6.34,4.72,6.78,4.47ZM6.1,11.8l-.35-.11a5.27,5.27,0,0,1-1.63-.87A1.22,1.22,0,0,1,3.6,10c0-.51.76-1.16,2-1.6l.48-.16A13,13,0,0,0,6.79,10,15,15,0,0,0,6.1,11.8Zm3.24,2.72a4.94,4.94,0,0,1-1.57,1,1.2,1.2,0,0,1-1,0c-.44-.25-.62-1.24-.37-2.56a4.24,4.24,0,0,1,.1-.46,12.82,12.82,0,0,0,1.89.27,13.22,13.22,0,0,0,1.2,1.49Zm.68-.67c-.28-.31-.56-.65-.84-1h1.67C10.57,13.21,10.3,13.54,10,13.85Zm3.64.83a1.29,1.29,0,0,1-.46.87c-.44.25-1.39-.08-2.41-1l-.35-.33a13.6,13.6,0,0,0,1.18-1.49,13.15,13.15,0,0,0,1.89-.29c0,.12.06.23.08.34A5.15,5.15,0,0,1,13.66,14.68Zm.5-3-.23.07A15.19,15.19,0,0,0,13.22,10a13.35,13.35,0,0,0,.68-1.75l.42.13c1.29.45,2.08,1.11,2.08,1.62S15.55,11.23,14.16,11.69Z"/><path class="cls-2" d="M10,8.74A1.25,1.25,0,1,1,8.75,10,1.25,1.25,0,0,1,10,8.74"/></svg>