<svg xmlns="http://www.w3.org/2000/svg" width="150" height="150" viewBox="0 0 150 150">
  <g id="interactive" transform="translate(-1551 -824)">
    <path id="Caminho_4" data-name="Caminho 4" d="M71.395,4.165a8.824,8.824,0,0,1,10.751,0l65.823,49.957a9.91,9.91,0,0,1,3.348,10.8l-25.123,80.77a9.231,9.231,0,0,1-8.723,6.644H36.07a9.231,9.231,0,0,1-8.723-6.644L2.225,64.924a9.91,9.91,0,0,1,3.348-10.8Z" transform="translate(1549.229 821.661)" fill="#57d131"/>
    <g id="channel" transform="translate(1558 851.357)">
      <path id="Caminho_17" data-name="Caminho 17" d="M222.547,28.976l.51,2.775a14.244,14.244,0,0,1,2.567-.233,13.954,13.954,0,0,1,6.411,1.537l1.284-2.512a16.713,16.713,0,0,0-4.874-1.613V25.875h2.821a1.411,1.411,0,0,0,1.411-1.411V17.411A1.411,1.411,0,0,0,231.266,16h-7.054a1.411,1.411,0,0,0-1.411,1.411v7.054a1.411,1.411,0,0,0,1.411,1.411h1.411V28.7a17.075,17.075,0,0,0-3.078.279Zm3.076-10.154h4.232v4.232h-4.232Z" transform="translate(-156.944)" fill="#fff"/>
      <path id="Caminho_18" data-name="Caminho 18" d="M72.464,38.571H65.411A1.411,1.411,0,0,0,64,39.982v7.054a1.411,1.411,0,0,0,1.411,1.411h7.054a1.411,1.411,0,0,0,1.411-1.411V44.214h4.292c-.038.466-.06.937-.06,1.411,0,.513.023,1.03.069,1.538l2.81-.254c-.038-.423-.058-.855-.058-1.284a14.06,14.06,0,0,1,7.7-12.57L87.34,30.543A17.1,17.1,0,0,0,84.1,32.7l-4.583-4.583v-10.7A1.411,1.411,0,0,0,78.107,16H66.821a1.411,1.411,0,0,0-1.411,1.411V28.7a1.411,1.411,0,0,0,1.411,1.411h10.7L82.1,34.688a16.814,16.814,0,0,0-3.463,6.705H73.875V39.982a1.411,1.411,0,0,0-1.411-1.411Zm-1.411,7.054H66.821V41.393h4.232ZM76.7,27.286H68.232V18.821H76.7Z" transform="translate(-26.357)" fill="#fff"/>
      <path id="Caminho_19" data-name="Caminho 19" d="M94.071,58.339h15.518A1.411,1.411,0,0,0,111,56.929V41.411A1.411,1.411,0,0,0,109.589,40H94.071a1.411,1.411,0,0,0-1.411,1.411V50.5l-9.579,5.987a16.98,16.98,0,0,0-3.63-4.157l-1.8,2.175a14.106,14.106,0,0,1,2.626,18.906l-2.821-.94a11.284,11.284,0,1,0-20.068-7.083A11.416,11.416,0,0,0,57.507,67l2.793-.4a8.585,8.585,0,0,1-.086-1.211A8.464,8.464,0,1,1,74.535,71.5l-.473-.158-2.117-7.41a3.823,3.823,0,0,0-7.5,1.05v7.743a8.477,8.477,0,0,1-3.024-2.973L59.006,71.21a11.275,11.275,0,0,0,5.441,4.648V77.5l-.994.994a14.064,14.064,0,0,1-7.919-7.977L52.9,71.549q.181.465.389.915l-9,5.626H33.411A1.411,1.411,0,0,0,32,79.5V90.786A1.411,1.411,0,0,0,33.411,92.2H44.7a1.411,1.411,0,0,0,1.411-1.411v-10.5l8.573-5.358a16.847,16.847,0,0,0,6.632,5.716l-2.1,2.1a1.411,1.411,0,0,0-.413,1V92.2a1.411,1.411,0,0,0,.327.9l6.727,8.072V119a1.411,1.411,0,0,0,1.411,1.411H85.607A1.411,1.411,0,0,0,87.018,119V100.994L91.1,92.827a1.41,1.41,0,0,0,.149-.631V81.013a5.459,5.459,0,0,0-3.738-5.186l-4.465-1.488a17.008,17.008,0,0,0,2.26-5.8l8.764,2.191v4.541a1.411,1.411,0,0,0,1.411,1.411h8.464a1.411,1.411,0,0,0,1.411-1.411V66.8a1.411,1.411,0,0,0-1.411-1.411H95.482A1.411,1.411,0,0,0,94.071,66.8v1.015L85.6,65.7c0-.1.007-.2.007-.308a16.925,16.925,0,0,0-1.242-6.377l8.3-5.185v3.1a1.411,1.411,0,0,0,1.411,1.411ZM43.286,89.375H34.821V80.911h8.464Zm45.143-8.362V91.863l-4.083,8.166a1.41,1.41,0,0,0-.149.631v16.929H68.679V100.661a1.411,1.411,0,0,0-.327-.9l-6.727-8.072V84.317L64.446,81.5v7.88h2.821V64.984a1,1,0,0,1,1.965-.275L71.5,72.644v9.677h2.821V74.4l2.821.94v6.977h2.821V76.285l2.821.941v5.1h2.821V78.166l1.013.338a2.642,2.642,0,0,1,1.809,2.509Zm8.464-12.8h5.643v5.643H96.893ZM95.482,42.821h12.7v12.7h-12.7Z" transform="translate(0 -19.768)" fill="#fff"/>
    </g>
  </g>
</svg>
