<svg id="Camada_1" data-name="Camada 1" xmlns="http://www.w3.org/2000/svg" viewBox="0 0 235.46 234.6"><defs><style>.cls-1{fill:#252934;}.cls-2,.cls-3{font-size:176.93px;fill:#fff;font-family:Roboto-Bold, Roboto;font-weight:700;}.cls-2{letter-spacing:-0.03em;}</style></defs><title>logo-png</title><path class="cls-1" d="M190.43,38.29c-5-2.39-13.06-2.39-18,0L94.54,75.79c-5,2.38-10,8.72-11.23,14.09L64.08,174.14c-1.23,5.36.58,13.26,4,17.56L122,259.28c3.43,4.3,10.74,7.82,16.24,7.82h86.42c5.5,0,12.81-3.52,16.24-7.82l53.89-67.58c3.43-4.3,5.23-12.2,4-17.56L279.53,89.88c-1.22-5.37-6.28-11.71-11.23-14.09Z" transform="translate(-63.69 -36.5)"/><text class="cls-2" transform="translate(31.42 186.65) scale(0.99 1)">T</text><text class="cls-3" transform="translate(71.34 186.64) scale(0.99 1)">w</text></svg>