<svg xmlns="http://www.w3.org/2000/svg" width="150" height="150" viewBox="0 0 150 150">
  <g id="mobile" transform="translate(-1109 -824)">
    <path id="Caminho_3" data-name="Caminho 3" d="M71.395,4.165a8.824,8.824,0,0,1,10.751,0l65.823,49.957a9.91,9.91,0,0,1,3.348,10.8l-25.123,80.77a9.231,9.231,0,0,1-8.723,6.644H36.07a9.231,9.231,0,0,1-8.723-6.644L2.225,64.924a9.91,9.91,0,0,1,3.348-10.8Z" transform="translate(1107.229 821.661)" fill="#57d131"/>
    <g id="coding" transform="translate(1124 873.714)">
      <path id="Caminho_13" data-name="Caminho 13" d="M103.143,6.214a2.073,2.073,0,0,1,2.071-2.071h29a2.073,2.073,0,0,1,2.071,2.071v6.214h4.143V6.214A6.221,6.221,0,0,0,134.214,0h-29A6.221,6.221,0,0,0,99,6.214v6.214h4.143Z" transform="translate(-57.714)" fill="#fff"/>
      <path id="Caminho_14" data-name="Caminho 14" d="M136.286,400.143H103.143V396H99v10.357a6.221,6.221,0,0,0,6.214,6.214h29a6.221,6.221,0,0,0,6.214-6.214V396h-4.143Zm-2.071,8.286h-29a2.073,2.073,0,0,1-2.071-2.071v-2.071h33.143v2.071A2.073,2.073,0,0,1,134.214,408.429Z" transform="translate(-57.714 -346.286)" fill="#fff"/>
      <path id="Caminho_15" data-name="Caminho 15" d="M363,147.619l16.571-16.571L363,114.476v5.858l10.713,10.713L363,141.761Z" transform="translate(-288.571 -100.105)" fill="#fff"/>
      <path id="Caminho_16" data-name="Caminho 16" d="M49.571,127.308,38.858,116.594l10.713-10.713v-5.858L33,116.594l16.571,16.571Z" transform="translate(0 -87.466)" fill="#fff"/>
    </g>
  </g>
</svg>
