<svg xmlns="http://www.w3.org/2000/svg" width="150" height="150" viewBox="0 0 150 150">
  <g id="team-player" transform="translate(-221 -812)">
    <g id="icon-team-player">
      <path id="Caminho_1" data-name="Caminho 1" d="M71.395,4.165a8.824,8.824,0,0,1,10.751,0l65.823,49.957a9.91,9.91,0,0,1,3.348,10.8l-25.123,80.77a9.231,9.231,0,0,1-8.723,6.644H36.07a9.231,9.231,0,0,1-8.723-6.644L2.225,64.924a9.91,9.91,0,0,1,3.348-10.8Z" transform="translate(219.23 809.661)" fill="#57d131"/>
    </g>
    <g id="friendship" transform="translate(244 734.802)">
      <g id="Grupo_2" data-name="Grupo 2" transform="translate(52.461 146.446)">
        <g id="Grupo_1" data-name="Grupo 1" transform="translate(0 0)">
          <path id="Caminho_7" data-name="Caminho 7" d="M309.242,248.911h-7.265a.147.147,0,0,1-.147-.147v-19.73a.147.147,0,0,1,.147-.147h7.265a1.514,1.514,0,1,0,0-3.028h-7.265a3.179,3.179,0,0,0-3.175,3.175v.309H297.21a7.623,7.623,0,0,0-3.146-5.19l-6.771-4.785a4.255,4.255,0,0,0-2.469-.785h-1.668a1.514,1.514,0,0,0,0,3.028h1.668a1.243,1.243,0,0,1,.721.229l6.771,4.785a4.59,4.59,0,0,1,1.938,3.743v4.263a1.514,1.514,0,1,0,3.028,0v-2.261H298.8v13.054h-2.084a2.468,2.468,0,0,0-2.465,2.465,1.008,1.008,0,0,1-1.007,1.005H280.2a4.771,4.771,0,0,0-2.191-5.961,4.776,4.776,0,0,0-1.546-6.3,7.087,7.087,0,0,0,1.739-4.278,10.655,10.655,0,0,0,10.164,7.5,1.514,1.514,0,0,0,0-3.028,7.616,7.616,0,0,1-7.607-7.607v-.567a2.787,2.787,0,0,0-5.574,0v3.313a4.093,4.093,0,0,1-4.088,4.088.264.264,0,0,1-.126-.03l-.02-.011a.237.237,0,0,1-.061-.048.277.277,0,0,1-.082-.2V224.2a2.593,2.593,0,0,1,2.59-2.59h3.47a1.514,1.514,0,1,0,0-3.028H273.4a5.629,5.629,0,0,0-5.438,4.2H265.43a4.776,4.776,0,0,0-3.839,7.617q-.176.145-.339.309a4.774,4.774,0,0,0,1.375,7.716,4.778,4.778,0,0,0,2,6.4,4.775,4.775,0,0,0,4.178,7.093h24.446a4.039,4.039,0,0,0,4-3.471H298.8v.31a3.179,3.179,0,0,0,3.175,3.175h7.264a1.514,1.514,0,1,0,0-3.028ZM264.2,226.328a1.732,1.732,0,0,1,1.235-.512h2.35v3.5h-2.35a1.749,1.749,0,0,1-1.235-2.987Zm-1.317,7.766a1.753,1.753,0,0,1,1.75-1.75h3.152v3.422c0,.026,0,.051,0,.077h-3.152A1.751,1.751,0,0,1,262.878,234.094Zm2.247,6.527a1.753,1.753,0,0,1,1.75-1.75h3.052a3.315,3.315,0,0,0,1.17.214,7.107,7.107,0,0,0,1.734-.214h1a1.751,1.751,0,0,1,1.748,1.75,1.753,1.753,0,0,1-1.748,1.748h-6.955A1.752,1.752,0,0,1,265.126,240.621Zm10.636,8.276H268.8a1.749,1.749,0,0,1,0-3.5h6.955a1.749,1.749,0,0,1,.006,3.5Z" transform="translate(-259.85 -218.584)" fill="#fff"/>
        </g>
      </g>
      <g id="Grupo_4" data-name="Grupo 4" transform="translate(0 146.446)">
        <g id="Grupo_3" data-name="Grupo 3" transform="translate(0 0)">
          <path id="Caminho_8" data-name="Caminho 8" d="M50.907,234.1a4.77,4.77,0,0,0-1.741-3.686,4.776,4.776,0,0,0-3.839-7.619H40.911a5.63,5.63,0,0,0-5.439-4.2H25.934a4.256,4.256,0,0,0-2.469.785l-6.771,4.785a7.625,7.625,0,0,0-3.149,5.19H11.954v-.31a3.179,3.179,0,0,0-3.175-3.175H1.514a1.514,1.514,0,0,0,0,3.028H8.779a.147.147,0,0,1,.147.147c0,20.966.081,19.877-.147,19.877H1.514a1.514,1.514,0,1,0,0,3.028H8.779a3.179,3.179,0,0,0,3.175-3.175v-.31h1.56a4.041,4.041,0,0,0,4,3.471H22a1.514,1.514,0,0,0,0-3.028H17.509a1.007,1.007,0,0,1-1.006-1.006,2.468,2.468,0,0,0-2.465-2.465H11.954V232.374h3.035A1.514,1.514,0,0,0,16.5,230.86v-.488a4.59,4.59,0,0,1,1.938-3.743l6.771-4.785a1.243,1.243,0,0,1,.721-.229h9.538a2.59,2.59,0,0,1,2.168,1.176h-4.6a1.514,1.514,0,0,0,0,3.028H45.326a1.749,1.749,0,1,1,0,3.5,1.514,1.514,0,1,0,0,3.028h.8a1.749,1.749,0,1,1,0,3.5H43.882a1.514,1.514,0,0,0,0,3.028,1.749,1.749,0,0,1,0,3.5H41.956a1.514,1.514,0,0,0,0,3.028,1.749,1.749,0,0,1,0,3.5H28.284a1.514,1.514,0,1,0,0,3.028H41.956a4.776,4.776,0,0,0,4.179-7.092,4.775,4.775,0,0,0,1.994-6.4A4.784,4.784,0,0,0,50.907,234.1Z" transform="translate(0 -218.586)" fill="#fff"/>
        </g>
      </g>
      <g id="Grupo_6" data-name="Grupo 6" transform="translate(50.17 128.198)">
        <g id="Grupo_5" data-name="Grupo 5" transform="translate(0 0)">
          <path id="Caminho_9" data-name="Caminho 9" d="M250.014,128.2a1.514,1.514,0,0,0-1.514,1.514v11.626a1.514,1.514,0,1,0,3.028,0V129.712A1.514,1.514,0,0,0,250.014,128.2Z" transform="translate(-248.5 -128.198)" fill="#fff"/>
        </g>
      </g>
      <g id="Grupo_8" data-name="Grupo 8" transform="translate(37.376 132.722)">
        <g id="Grupo_7" data-name="Grupo 7" transform="translate(0 0)">
          <path id="Caminho_10" data-name="Caminho 10" d="M193.771,161.43l-5.813-10.068a1.514,1.514,0,0,0-2.623,1.514l5.813,10.068a1.514,1.514,0,1,0,2.623-1.514Z" transform="translate(-185.132 -150.605)" fill="#fff"/>
        </g>
      </g>
      <g id="Grupo_10" data-name="Grupo 10" transform="translate(57.15 132.721)">
        <g id="Grupo_9" data-name="Grupo 9" transform="translate(0 0)">
          <path id="Caminho_11" data-name="Caminho 11" d="M291.157,150.807a1.514,1.514,0,0,0-2.068.554l-5.813,10.068a1.514,1.514,0,1,0,2.623,1.514l5.813-10.068A1.514,1.514,0,0,0,291.157,150.807Z" transform="translate(-283.072 -150.603)" fill="#fff"/>
        </g>
      </g>
    </g>
  </g>
</svg>
