<svg id="Camada_1" data-name="Camada 1" xmlns="http://www.w3.org/2000/svg" viewBox="0 0 20 20"><defs><style>.cls-1{fill:#57d131;}.cls-2{fill:#f2f2f2;}</style></defs><title>icon-javascript</title><rect class="cls-1" width="20" height="20" rx="0.58"/><path class="cls-2" d="M13.57,9.26a.76.76,0,0,0-1.4-.12c-.19.57.45.9,1.45,1.23a2,2,0,0,1,1.49,2c-.12.78-.45,1.8-2.42,1.8a2.58,2.58,0,0,1-2.26-1.34l1.12-.67s.38.8,1.09.8,1-.23,1-.78-2.3-.9-2.66-2,.12-2.76,1.78-2.64a2.56,2.56,0,0,1,1.92,1Z"/><path class="cls-2" d="M8.39,7.62v4.56a.75.75,0,0,1-1,.74c-.47-.1-.69-.67-.69-.67L5.66,13a1.72,1.72,0,0,0,1.73,1.18c1.5.1,2.35-.8,2.35-1.56v-5Z"/><path class="cls-2" d="M3,3V16a8.27,8.27,0,0,0,1.15,1H14a9.76,9.76,0,0,0,.94-.76H3.76V3.76H16.24V14.65A8.61,8.61,0,0,0,17,13.17V3Z"/></svg>