<svg id="Camada_1" data-name="Camada 1" xmlns="http://www.w3.org/2000/svg" viewBox="0 0 20 20"><defs><style>.cls-1{fill:#57d131;}.cls-2{fill:#fff;}</style></defs><title>icon-html5</title><rect class="cls-1" width="20" height="20" rx="0.58"/><path class="cls-2" d="M3.22,3A.22.22,0,0,0,3,3.23L4.21,15.4a.39.39,0,0,0,.28.3L9.71,17a1.1,1.1,0,0,0,.51,0l5.24-1.28a.36.36,0,0,0,.28-.29L17,3.23A.23.23,0,0,0,16.73,3ZM14.35,5.79l0,.44,0,.32c0,.13,0,.31,0,.41l0,.17H7.76a.23.23,0,0,0-.25.24l.12,1.12a.29.29,0,0,0,.29.23h5.9a.2.2,0,0,1,.22.21c0,.11,0,.31,0,.44L13.63,13c0,.13,0,.29,0,.36s-.13.16-.27.2l-3.09.75-.26.07-.26-.07-3.09-.75a.4.4,0,0,1-.28-.3l-.19-2A.22.22,0,0,1,6.39,11H7.62a.28.28,0,0,1,.29.24l.08.77a.38.38,0,0,0,.28.29l1.44.34.26.06.26-.06,1.45-.34A.39.39,0,0,0,12,12l.15-1.54c0-.13-.09-.23-.24-.23H6.31A.29.29,0,0,1,6,10L5.63,6.23l0-.44a.22.22,0,0,1,.24-.21h8.28C14.26,5.58,14.37,5.68,14.35,5.79Z" transform="translate(0.02)"/></svg>