<svg id="Camada_1" data-name="Camada 1" xmlns="http://www.w3.org/2000/svg" viewBox="0 0 20 20"><defs><style>.cls-1{fill:#57d031;}.cls-2{fill:#fcfcfc;}</style></defs><title>icon-svg</title><rect class="cls-1" width="20" height="20" rx="0.58"/><path class="cls-2" d="M5.35,4.58A.56.56,0,0,1,5.91,4h4.83V6A1.66,1.66,0,0,0,12.4,7.65h2v3.29h1.11V6.87L11.54,2.92H5.91A1.66,1.66,0,0,0,4.25,4.58v6.36h1.1ZM11.85,6V4.8l1.74,1.74H12.4A.55.55,0,0,1,11.85,6ZM17,14v.56a2.52,2.52,0,0,1-2.51,2.51h0a2.52,2.52,0,1,1,1-4.82l-.45,1a1.4,1.4,0,0,0-.57-.13,1.42,1.42,0,0,0,0,2.83,1.45,1.45,0,0,0,1.3-.86H14.59V14ZM7,15.55a1.54,1.54,0,0,1-1.53,1.53H3V16H5.48a.44.44,0,0,0,.43-.43.43.43,0,0,0-.43-.43H4.54a1.54,1.54,0,1,1,0-3.07H6.43v1.1H4.54a.43.43,0,0,0-.43.43.43.43,0,0,0,.43.43h.94A1.54,1.54,0,0,1,7,15.55Zm3.48-3.5h1.17l-1.74,5H9.08l-1.76-5H8.49l1,2.87Z"/></svg>