<svg xmlns="http://www.w3.org/2000/svg" width="150" height="150" viewBox="0 0 150 150">
  <g id="responsive" transform="translate(-663 -824)">
    <path id="Caminho_2" data-name="Caminho 2" d="M71.395,4.165a8.824,8.824,0,0,1,10.751,0l65.823,49.957a9.91,9.91,0,0,1,3.348,10.8l-25.123,80.77a9.231,9.231,0,0,1-8.723,6.644H36.07a9.231,9.231,0,0,1-8.723-6.644L2.225,64.924a9.91,9.91,0,0,1,3.348-10.8Z" transform="translate(661.23 821.661)" fill="#57d131"/>
    <g id="tablet" transform="translate(701 819.533)">
      <g id="Grupo_11" data-name="Grupo 11" transform="translate(0 55.467)">
        <path id="Caminho_12" data-name="Caminho 12" d="M73.929,85.35H64.964V61.963a6.5,6.5,0,0,0-6.5-6.5H19.489a6.5,6.5,0,0,0-6.5,6.5v7.8H5.865A5.871,5.871,0,0,0,0,75.624v35.044a5.871,5.871,0,0,0,5.865,5.865H26.617a5.856,5.856,0,0,0,5.5-3.9H54.57a1.3,1.3,0,0,0,1.3-1.3v-2.6a3.9,3.9,0,0,0-3.9-3.9h-3.9v-5.2H58.468v12.863a4.028,4.028,0,0,0,4.028,4.028H73.929a4.028,4.028,0,0,0,4.028-4.028V89.378A4.028,4.028,0,0,0,73.929,85.35ZM29.883,110.668a3.269,3.269,0,0,1-3.266,3.266H5.865A3.269,3.269,0,0,1,2.6,110.668v-.631H29.883v.631Zm0-3.23H2.6V78.854H29.883Zm0-31.183H2.6v-.631a3.269,3.269,0,0,1,3.266-3.266H26.617a3.269,3.269,0,0,1,3.266,3.266Zm22.088,31.183a1.3,1.3,0,0,1,1.3,1.3v1.3H32.482v-2.6Zm-19.489-2.6v-5.2H45.475v5.2Zm25.986-7.8H32.482v-3.9H58.468Zm0-7.666v1.169H32.482V75.624a5.871,5.871,0,0,0-5.865-5.865H15.591v-7.8a3.9,3.9,0,0,1,3.9-3.9H58.468a3.9,3.9,0,0,1,3.9,3.9v23.4A4.028,4.028,0,0,0,58.468,89.378Zm16.891,23.127a1.429,1.429,0,0,1-1.429,1.429H62.5a1.429,1.429,0,0,1-1.429-1.429v-1.169H75.358Zm0-3.768H61.066V93.146H75.358Zm0-18.19H61.066V89.378A1.429,1.429,0,0,1,62.5,87.949H73.929a1.429,1.429,0,0,1,1.429,1.429Z" transform="translate(0 -55.467)" fill="#fff"/>
      </g>
    </g>
  </g>
</svg>
